<?xml version="1.0" encoding="utf-8"?>
<!-- Generator: Adobe Illustrator 25.4.1, SVG Export Plug-In . SVG Version: 6.00 Build 0)  -->
<svg version="1.1" id="Layer_1" xmlns="http://www.w3.org/2000/svg" xmlns:xlink="http://www.w3.org/1999/xlink" x="0px" y="0px"
	 viewBox="0 0 399 265" style="enable-background:new 0 0 399 265;" xml:space="preserve">
<style type="text/css">
	.st0{fill:#484848;}
	.st1{fill:#231F20;}
</style>
<g transform="translate(337)">
	<path class="st0" d="M-105.8,100H11.3c1.1,0,2,0.9,2,2c0,0.3-0.1,0.6-0.2,0.8l-51,115.6c-0.8,1.8-2.6,3-4.6,3h-154
		c-2.2,0-4.2-1.5-4.8-3.7l-58-207.2C-261,4.3-266.8,0-273.3,0h-38.1c-7,0-15.6,5.1-15.6,14.3c0,9.3,6.8,14.2,15.6,14.2h23.4
		c2.2,0,4.2,1.5,4.8,3.7l58.1,207.3c1.7,6.2,7.5,10.5,14,10.5h181.6c5.8,0,10.9-3.3,13.3-8.6l66.1-150c1.9-4.5,1.4-9.5-1.2-13.6
		c-2.7-4.1-7.2-6.4-12.1-6.4h-142c1.3,4.5,1.9,9.1,1.9,13.8C-103.6,90.3-104.3,95.3-105.8,100L-105.8,100z"/>
	<ellipse class="st1" cx="-154.9" cy="84.6" rx="35.2" ry="35.2"/>
</g>
</svg>
